<svg xmlns="http://www.w3.org/2000/svg" viewBox="0 0 56.36 18.29"><defs><style>.cls-1{fill:#0067b0;}.cls-2{fill:#faa735;}</style></defs><title>logo_Visa</title><g id="Capa_2" data-name="Capa 2"><g id="Layer_1" data-name="Layer 1"><polygon class="cls-1" points="24.43 17.98 19.83 17.98 22.71 0.32 27.3 0.32 24.43 17.98"/><path class="cls-1" d="M16,.32,11.58,12.47l-.52-2.62h0L9.52,1.91A2,2,0,0,0,7.33.32H.09L0,.62a17.23,17.23,0,0,1,4.81,2L8.8,18h4.8L20.91.32Z"/><path class="cls-1" d="M52.14,18h4.22L52.68.32H49a2.12,2.12,0,0,0-2.13,1.31L40,18h4.79l1-2.63H51.6Zm-5.06-6.24,2.41-6.62,1.36,6.62Z"/><path class="cls-1" d="M40.36,4.57,41,.77A13.32,13.32,0,0,0,36.88,0c-2.28,0-7.7,1-7.7,5.85,0,4.56,6.36,4.62,6.36,7s-5.71,2-7.59.46l-.68,4a12.84,12.84,0,0,0,5.19,1c3.14,0,7.87-1.63,7.87-6,0-4.6-6.42-5-6.42-7S38.39,3.48,40.36,4.57Z"/><path class="cls-2" d="M11.06,9.85,9.52,1.91A2,2,0,0,0,7.33.32H.09L0,.62A17.83,17.83,0,0,1,6.83,4.05,13.74,13.74,0,0,1,11.06,9.85Z"/></g></g></svg>