<svg xmlns="http://www.w3.org/2000/svg" viewBox="0 0 38.11 29.61"><defs><style>.cls-1{fill:#232020;}.cls-2{fill:#eb2629;}.cls-3{fill:#f16c24;}.cls-4{fill:#f99f21;}</style></defs><title>logo_mastercard</title><g id="Capa_2" data-name="Capa 2"><g id="Layer_1" data-name="Layer 1"><path class="cls-1" d="M6.53,26.59a1.11,1.11,0,0,0-.39-.26,1.16,1.16,0,0,0-.49-.1,1.53,1.53,0,0,0-.3,0,1.67,1.67,0,0,0-.3.08,1.24,1.24,0,0,0-.27.17,1,1,0,0,0-.23.28,1.21,1.21,0,0,0-.43-.41,1.38,1.38,0,0,0-.62-.15l-.24,0a.67.67,0,0,0-.24.07.72.72,0,0,0-.24.14.9.9,0,0,0-.2.23v-.38H1.92v3.11h.66V27.7a.84.84,0,0,1,.07-.35,1.13,1.13,0,0,1,.16-.26.79.79,0,0,1,.25-.15.77.77,0,0,1,.3-.06.68.68,0,0,1,.52.21.89.89,0,0,1,.19.61v1.73h.66V27.7a1,1,0,0,1,.06-.35A.9.9,0,0,1,5,27.09a.7.7,0,0,1,.25-.15.73.73,0,0,1,.3-.06.71.71,0,0,1,.52.21.94.94,0,0,1,.18.61v1.73h.66v-2a1.39,1.39,0,0,0-.09-.5,1,1,0,0,0-.25-.38"/><path class="cls-1" d="M10,26.69a1.2,1.2,0,0,0-.41-.33A1.27,1.27,0,0,0,9,26.23a1.79,1.79,0,0,0-.61.12,1.57,1.57,0,0,0-.49.35,1.54,1.54,0,0,0-.33.52,1.71,1.71,0,0,0-.12.65,1.76,1.76,0,0,0,.12.66,1.53,1.53,0,0,0,.82.86,1.59,1.59,0,0,0,.61.13,1.27,1.27,0,0,0,.58-.13,1.33,1.33,0,0,0,.41-.33v.37h.67V26.32H10Zm0,1.58a.94.94,0,0,1-.19.32.9.9,0,0,1-.3.21.92.92,0,0,1-.38.07.9.9,0,0,1-.69-.29,1.13,1.13,0,0,1-.19-.32,1.23,1.23,0,0,1-.06-.39,1.21,1.21,0,0,1,.06-.38.86.86,0,0,1,.19-.31A.77.77,0,0,1,8.72,27a.87.87,0,0,1,.4-.08A.92.92,0,0,1,9.5,27a1,1,0,0,1,.49.53,1.15,1.15,0,0,1,0,.79"/><path class="cls-1" d="M13.82,27.87a1.58,1.58,0,0,0-.8-.29l-.32,0-.2,0-.16-.06s-.09-.05-.11-.09a.23.23,0,0,1,0-.14.32.32,0,0,1,.15-.27.78.78,0,0,1,.44-.1,1.33,1.33,0,0,1,.28,0,1.81,1.81,0,0,1,.27.06l.23.09.18.09.29-.53a1.67,1.67,0,0,0-.56-.24,2.74,2.74,0,0,0-.7-.09,1.81,1.81,0,0,0-.54.07,1,1,0,0,0-.4.2.77.77,0,0,0-.26.31,1,1,0,0,0-.09.42.78.78,0,0,0,.27.61,1.56,1.56,0,0,0,.79.3l.33.05a.86.86,0,0,1,.4.12.25.25,0,0,1,.13.22.31.31,0,0,1-.17.28,1.13,1.13,0,0,1-.54.1l-.34,0-.28-.08-.22-.1-.18-.12-.32.51a2.12,2.12,0,0,0,.36.21,2.53,2.53,0,0,0,.36.12l.34.06h.28a2.74,2.74,0,0,0,.6-.07,1.2,1.2,0,0,0,.44-.21A.88.88,0,0,0,14,28.9a.8.8,0,0,0,.1-.41.74.74,0,0,0-.29-.62"/><path class="cls-1" d="M20.19,26.69a1.4,1.4,0,0,0-1.07-.46,1.52,1.52,0,0,0-.62.12,1.44,1.44,0,0,0-.49.34,1.38,1.38,0,0,0-.32.52,1.76,1.76,0,0,0-.12.66,1.83,1.83,0,0,0,.12.68,1.65,1.65,0,0,0,.33.52,1.56,1.56,0,0,0,.5.33,1.71,1.71,0,0,0,.65.12,2.41,2.41,0,0,0,.67-.1,1.76,1.76,0,0,0,.61-.34l-.34-.49a1.4,1.4,0,0,1-.43.24,1.31,1.31,0,0,1-.47.09,1.13,1.13,0,0,1-.32-.05.7.7,0,0,1-.27-.14.73.73,0,0,1-.22-.24,1,1,0,0,1-.12-.37h2.3a.45.45,0,0,0,0-.12.57.57,0,0,0,0-.13,1.94,1.94,0,0,0-.11-.66,1.48,1.48,0,0,0-.3-.52m-1.91.92a1.41,1.41,0,0,1,.1-.31.69.69,0,0,1,.41-.41,1,1,0,0,1,.32-.05.72.72,0,0,1,.53.2,1,1,0,0,1,.26.57Z"/><path class="cls-1" d="M29.22,26.69a1.16,1.16,0,0,0-.4-.33,1.31,1.31,0,0,0-.58-.13,1.74,1.74,0,0,0-.61.12,1.57,1.57,0,0,0-.49.35,1.42,1.42,0,0,0-.34.52,1.71,1.71,0,0,0-.12.65,1.76,1.76,0,0,0,.12.66,1.42,1.42,0,0,0,.34.52,1.55,1.55,0,0,0,1.1.47,1.31,1.31,0,0,0,.58-.13,1.29,1.29,0,0,0,.4-.33v.37h.68V26.32h-.68Zm0,1.58a1.16,1.16,0,0,1-.2.32.86.86,0,0,1-.29.21,1,1,0,0,1-.39.07.83.83,0,0,1-.39-.08.81.81,0,0,1-.3-.21.92.92,0,0,1-.18-.32,1,1,0,0,1-.07-.39,1,1,0,0,1,.07-.38.89.89,0,0,1,.48-.53.83.83,0,0,1,.39-.08,1,1,0,0,1,.39.07.77.77,0,0,1,.29.22,1,1,0,0,1,.2.31,1.23,1.23,0,0,1,.06.39,1.25,1.25,0,0,1-.06.4"/><path class="cls-1" d="M16.74,28.81a1,1,0,0,1-.33.06.58.58,0,0,1-.19,0,.4.4,0,0,1-.15-.1.42.42,0,0,1-.11-.18.73.73,0,0,1,0-.27V26.93H17v-.61H15.92v-.95h-.69v.95h-.62v.61h.62V28.3a1.23,1.23,0,0,0,.3.92,1.1,1.1,0,0,0,.82.3,1.68,1.68,0,0,0,.53-.09,1.57,1.57,0,0,0,.29-.15L17,28.72l-.21.09"/><path class="cls-1" d="M22.87,26.23a1.23,1.23,0,0,0-.51.11,1.12,1.12,0,0,0-.39.39v-.41h-.62v3.11H22V27.72a1.29,1.29,0,0,1,.06-.36,1.1,1.1,0,0,1,.15-.26.78.78,0,0,1,.24-.16.73.73,0,0,1,.3-.06l.26,0,.14,0,.2-.65a.47.47,0,0,0-.16,0,1.29,1.29,0,0,0-.29,0"/><path class="cls-1" d="M32.32,26.23a1.19,1.19,0,0,0-.51.11,1.12,1.12,0,0,0-.39.39v-.41H30.8v3.11h.63V27.72a1,1,0,0,1,.06-.36.68.68,0,0,1,.15-.26.63.63,0,0,1,.23-.16.73.73,0,0,1,.3-.06l.27,0,.13,0,.21-.65a.53.53,0,0,0-.17,0,1.29,1.29,0,0,0-.29,0"/><path class="cls-1" d="M35.5,25.05v1.64a1.08,1.08,0,0,0-.4-.33,1.27,1.27,0,0,0-.58-.13,1.69,1.69,0,0,0-.6.12,1.5,1.5,0,0,0-.5.35,1.54,1.54,0,0,0-.33.52,1.71,1.71,0,0,0-.12.65,1.76,1.76,0,0,0,.12.66,1.54,1.54,0,0,0,.33.52,1.48,1.48,0,0,0,.5.34,1.5,1.5,0,0,0,.6.13,1.27,1.27,0,0,0,.58-.13,1.18,1.18,0,0,0,.4-.33v.37h.68V25.05Zm0,3.22a1,1,0,0,1-.2.32.86.86,0,0,1-.29.21.94.94,0,0,1-.39.07.85.85,0,0,1-.39-.08.86.86,0,0,1-.29-.21.8.8,0,0,1-.19-.32,1.09,1.09,0,0,1,0-.77.65.65,0,0,1,.19-.31.77.77,0,0,1,.29-.22.85.85,0,0,1,.39-.08A.94.94,0,0,1,35,27a.77.77,0,0,1,.29.22.83.83,0,0,1,.2.31,1.15,1.15,0,0,1,0,.79"/><path class="cls-1" d="M24.5,27.15a1.1,1.1,0,0,1,.31-.2,1,1,0,0,1,.39-.07,1.25,1.25,0,0,1,.43.07.94.94,0,0,1,.32.19l.33-.54a1.72,1.72,0,0,0-1.08-.37,1.82,1.82,0,0,0-.67.13,1.64,1.64,0,0,0-.88.86,1.61,1.61,0,0,0-.13.65,1.51,1.51,0,0,0,.13.65,1.58,1.58,0,0,0,.35.53,1.61,1.61,0,0,0,.53.34,1.82,1.82,0,0,0,.67.13,1.86,1.86,0,0,0,.67-.13,1.52,1.52,0,0,0,.41-.24L26,28.6a1.16,1.16,0,0,1-.32.2,1.25,1.25,0,0,1-.43.07,1,1,0,0,1-.39-.07,1.1,1.1,0,0,1-.31-.2,1.16,1.16,0,0,1-.2-.32.91.91,0,0,1-.08-.41.9.9,0,0,1,.08-.4,1.16,1.16,0,0,1,.2-.32"/><path class="cls-1" d="M37.61,29l.13,0a.41.41,0,0,1,.11.07.33.33,0,0,1,.06.1.28.28,0,0,1,0,.13.27.27,0,0,1,0,.12.53.53,0,0,1-.06.1.41.41,0,0,1-.11.07l-.13,0-.12,0a.41.41,0,0,1-.11-.07.61.61,0,0,1-.07-.1.25.25,0,0,1,0-.12.27.27,0,0,1,0-.13.36.36,0,0,1,.07-.1.41.41,0,0,1,.11-.07l.12,0m0,.54h.09l.08-.05a.56.56,0,0,0,0-.08.22.22,0,0,0,0-.08.31.31,0,0,0,0-.1l0-.07-.08-.05h-.18l-.07.05s0,0-.05.07a.3.3,0,0,0,0,.1.24.24,0,0,0,0,.08.22.22,0,0,0,.05.08l.07.05h.09m0-.36s.07,0,.09,0a.08.08,0,0,1,0,.07.08.08,0,0,1,0,.05.09.09,0,0,1-.06,0l.09.1h-.1l-.08-.1h0v.1h-.08v-.28Zm-.06.06v.05h.09s0,0,0,0,0,0,0,0,0,0,0,0Z"/><path class="cls-2" d="M14.57,11.74A11.72,11.72,0,0,1,19,2.54,11.74,11.74,0,1,0,19,21a11.75,11.75,0,0,1-4.46-9.22"/><path class="cls-3" d="M14.57,11.74A11.75,11.75,0,0,0,19,21,11.74,11.74,0,0,0,19,2.54a11.72,11.72,0,0,0-4.46,9.2"/><path class="cls-4" d="M37.27,18.1v-.34h-.15v-.09h.39v.09h-.14v.34Zm.73,0v-.3l-.1.26h-.11l-.09-.26v.3h-.11v-.43h.15l.11.27.11-.27h.15v.43Z"/><path class="cls-4" d="M26.32,0A11.67,11.67,0,0,0,19,2.54,11.74,11.74,0,0,1,19,21,11.75,11.75,0,1,0,26.32,0"/></g></g></svg>