<svg xmlns="http://www.w3.org/2000/svg" viewBox="0 0 45.75 33.47"><defs><style>.cls-1{fill:red;}.cls-2{fill:#fff;}</style></defs><title>logo_carnet</title><g id="Capa_2" data-name="Capa 2"><g id="Layer_1" data-name="Layer 1"><rect class="cls-1" width="45.75" height="33.47"/><path class="cls-2" d="M22.55,12.62c6.8,0,12.44,2.6,13.57,6a4.06,4.06,0,0,0,.22-1.25c0-4-6.17-7.27-13.79-7.27S8.77,13.37,8.77,17.38A4,4,0,0,0,9,18.63C10.11,15.22,15.75,12.62,22.55,12.62Zm0-4.33c6.8,0,12.44,2.6,13.57,6a4.11,4.11,0,0,0,.22-1.25c0-4-6.17-7.27-13.79-7.27S8.77,9,8.77,13.06A4.1,4.1,0,0,0,9,14.31C10.11,10.89,15.75,8.29,22.55,8.29Zm5.67,17.4-2.84-3.6H24v5.37h1.29V23.94l2.79,3.52H29.5V22.09H28.22ZM7,26.35a1.57,1.57,0,0,1-1,.28,1.76,1.76,0,0,1-1.22-.43,1.94,1.94,0,0,1-.47-1.46,1.79,1.79,0,0,1,.48-1.39,1.74,1.74,0,0,1,1.23-.43,1.75,1.75,0,0,1,.94.24,1.14,1.14,0,0,1,.51.66l1.38-.25a2.12,2.12,0,0,0-.71-1,3.34,3.34,0,0,0-2-.58,3.48,3.48,0,0,0-2.33.74,2.56,2.56,0,0,0-.88,2.08,2.45,2.45,0,0,0,.88,2,3.4,3.4,0,0,0,2.25.73,3.49,3.49,0,0,0,1.83-.43,2.37,2.37,0,0,0,1-1.31l-1.35-.32A1.46,1.46,0,0,1,7,26.35Zm29.9-4.26V23H39v4.46h1.39V23h2v-.91Zm-4.53,3h3.45v-.91H32.38V23h3.7v-.91H31v5.37h5.24v-.91H32.38Zm-10.74.45a3.36,3.36,0,0,0-.74-.45,2.51,2.51,0,0,0,1.36-.49,1.32,1.32,0,0,0,.15-1.85,1.54,1.54,0,0,0-.8-.52,6.16,6.16,0,0,0-1.6-.14H17.08v5.37h1.4V25.22h.28a2.94,2.94,0,0,1,.7.06,1.21,1.21,0,0,1,.42.22,8.64,8.64,0,0,1,.73.79l1,1.17h1.66l-.84-1A6.45,6.45,0,0,0,21.64,25.54ZM19.5,24.36h-1V23h2.09a.92.92,0,0,1,.53.22.56.56,0,0,1,.18.44.61.61,0,0,1-.14.4.75.75,0,0,1-.39.23A7.45,7.45,0,0,1,19.5,24.36Zm-7.39-2.27L9.43,27.46H10.9l.57-1.22h2.76l.6,1.22h1.51l-2.76-5.37Zm-.21,3.24.93-2,.95,2Z"/></g></g></svg>